<svg xmlns="http://www.w3.org/2000/svg" width="760" height="430" font-family="ui-sans-serif,Helvetica,Arial,sans-serif" font-size="12">
<rect width="760" height="430" fill="white"/>
<text x="14" y="26" font-size="15" font-weight="bold">Per-module cohesion vs coupling (mean weight/run)</text>
<line x1="72" y1="334.0" x2="610" y2="334.0" stroke="#eee"/>
<text x="64" y="338.0" text-anchor="end" fill="#555">0.00</text>
<line x1="72" y1="278.0" x2="610" y2="278.0" stroke="#eee"/>
<text x="64" y="282.0" text-anchor="end" fill="#555">3.13</text>
<line x1="72" y1="222.0" x2="610" y2="222.0" stroke="#eee"/>
<text x="64" y="226.0" text-anchor="end" fill="#555">6.26</text>
<line x1="72" y1="166.0" x2="610" y2="166.0" stroke="#eee"/>
<text x="64" y="170.0" text-anchor="end" fill="#555">9.39</text>
<line x1="72" y1="110.0" x2="610" y2="110.0" stroke="#eee"/>
<text x="64" y="114.0" text-anchor="end" fill="#555">12.51</text>
<line x1="72" y1="54.0" x2="610" y2="54.0" stroke="#eee"/>
<text x="64" y="58.0" text-anchor="end" fill="#555">15.64</text>
<text x="16" y="194" transform="rotate(-90 16 194)" text-anchor="middle" fill="#333">interaction weight</text>
<rect x="85.5" y="225.0" width="53.8" height="109.0" fill="#08519c"/>
<rect x="139.2" y="326.9" width="53.8" height="7.1" fill="#6baed6"/>
<text x="139.2" y="352" text-anchor="middle">builder</text>
<rect x="219.9" y="54.0" width="53.8" height="280.0" fill="#08519c"/>
<rect x="273.8" y="227.7" width="53.8" height="106.3" fill="#6baed6"/>
<text x="273.8" y="352" text-anchor="middle">exploiter</text>
<rect x="354.4" y="186.8" width="53.8" height="147.2" fill="#08519c"/>
<rect x="408.2" y="221.7" width="53.8" height="112.3" fill="#6baed6"/>
<text x="408.2" y="352" text-anchor="middle">fixer</text>
<rect x="488.9" y="334.0" width="53.8" height="0.0" fill="#08519c"/>
<rect x="542.8" y="315.7" width="53.8" height="18.3" fill="#6baed6"/>
<text x="542.8" y="352" text-anchor="middle">reporter</text>
<line x1="72" y1="334" x2="610" y2="334" stroke="#333"/>
<rect x="626" y="58" width="12" height="12" fill="#08519c"/>
<text x="642" y="69">intra (cohesion)</text>
<rect x="626" y="78" width="12" height="12" fill="#6baed6"/>
<text x="642" y="89">inter (coupling)</text>
</svg>